<svg width="21" height="22" viewBox="0 0 21 22" fill="none" xmlns="http://www.w3.org/2000/svg">
<path fill-rule="evenodd" clip-rule="evenodd" d="M13.4419 16.2955C11.7287 17.6044 9.60175 18.1936 7.48731 17.9451C5.37287 17.6966 3.42706 16.6287 2.03971 14.9554C0.652365 13.282 -0.0740577 11.1269 0.00597469 8.92165C0.0860071 6.71642 0.966584 4.62399 2.47129 3.06355C3.976 1.50312 5.9937 0.589925 8.12017 0.506928C10.2466 0.423932 12.3248 1.17726 13.9384 2.61599C15.5519 4.05472 16.5817 6.07259 16.8213 8.26535C17.061 10.4581 16.4928 12.6638 15.2307 14.4405L19.8797 19.26C20.0041 19.3802 20.1038 19.5251 20.173 19.6861C20.2422 19.8471 20.2794 20.0209 20.2824 20.1971C20.2854 20.3733 20.2541 20.5484 20.1904 20.7118C20.1268 20.8752 20.032 21.0237 19.9119 21.1483C19.7917 21.273 19.6485 21.3712 19.4909 21.4372C19.3333 21.5032 19.1645 21.5357 18.9946 21.5325C18.8247 21.5294 18.6571 21.4909 18.5018 21.4191C18.3466 21.3474 18.2069 21.244 18.091 21.115L13.4419 16.2955ZM14.3447 9.25001C14.3447 10.8745 13.7225 12.4324 12.6148 13.581C11.5072 14.7297 10.0049 15.375 8.43849 15.375C6.87205 15.375 5.36978 14.7297 4.26214 13.581C3.1545 12.4324 2.53224 10.8745 2.53224 9.25001C2.53224 7.62556 3.1545 6.06764 4.26214 4.91898C5.36978 3.77032 6.87205 3.12501 8.43849 3.12501C10.0049 3.12501 11.5072 3.77032 12.6148 4.91898C13.7225 6.06764 14.3447 7.62556 14.3447 9.25001Z" fill="#A8A8A8"/>
</svg>
